<svg width="33" height="32" viewBox="0 0 33 32" fill="none" xmlns="http://www.w3.org/2000/svg">
<path d="M25.348 12.1824C25.2093 12.2904 22.7603 13.6754 22.7603 16.7549C22.7603 20.3168 25.8765 21.577 25.9698 21.6082C25.9554 21.685 25.4747 23.3339 24.3268 25.0141C23.3032 26.4926 22.2341 27.9688 20.6079 27.9688C18.9816 27.9688 18.5631 27.0207 16.6857 27.0207C14.8561 27.0207 14.2056 28 12.7181 28C11.2305 28 10.1926 26.6319 8.99919 24.9517C7.61686 22.9787 6.5 19.9136 6.5 17.0045C6.5 12.3384 9.52295 9.86379 12.4981 9.86379C14.0789 9.86379 15.3966 10.9055 16.3891 10.9055C17.3338 10.9055 18.807 9.80138 20.6055 9.80138C21.2871 9.80138 23.736 9.86379 25.348 12.1824ZM19.7517 7.82598C20.4955 6.94029 21.0216 5.71137 21.0216 4.48245C21.0216 4.31203 21.0073 4.13921 20.9762 4C19.766 4.0456 18.3263 4.80888 17.4582 5.81938C16.7766 6.59706 16.1404 7.82598 16.1404 9.07171C16.1404 9.25893 16.1715 9.44614 16.1859 9.50615C16.2624 9.52055 16.3868 9.53735 16.5111 9.53735C17.5969 9.53735 18.9625 8.80768 19.7517 7.82598Z" fill="white"/>
</svg>
