<svg width="32" height="32" viewBox="0 0 32 32" fill="none" xmlns="http://www.w3.org/2000/svg">
<path d="M15.9998 13.818V18.4653H22.458C22.1744 19.9598 21.3234 21.2253 20.0471 22.0762L23.9416 25.0981C26.2107 23.0036 27.5198 19.9272 27.5198 16.2727C27.5198 15.4218 27.4434 14.6035 27.3016 13.8181L15.9998 13.818Z" fill="#4285F4"/>
<path d="M9.27468 18.284L8.39631 18.9564L5.28717 21.3782C7.26171 25.2945 11.3087 28 15.9996 28C19.2395 28 21.9558 26.9309 23.9413 25.0982L20.0468 22.0764C18.9777 22.7963 17.614 23.2328 15.9996 23.2328C12.8796 23.2328 10.2287 21.1273 9.27958 18.2909L9.27468 18.284Z" fill="#34A853"/>
<path d="M5.28718 10.6223C4.46904 12.2367 4 14.0586 4 16.0004C4 17.9421 4.46904 19.764 5.28718 21.3785C5.28718 21.3893 9.27997 18.2803 9.27997 18.2803C9.03998 17.5603 8.89812 16.7967 8.89812 16.0002C8.89812 15.2038 9.03998 14.4402 9.27997 13.7202L5.28718 10.6223Z" fill="#FBBC05"/>
<path d="M15.9998 8.77818C17.7671 8.77818 19.338 9.38907 20.5925 10.5673L24.0289 7.13095C21.9452 5.18917 19.2398 4 15.9998 4C11.3089 4 7.26171 6.69454 5.28717 10.6218L9.27984 13.72C10.2289 10.8836 12.8798 8.77818 15.9998 8.77818Z" fill="#EA4335"/>
</svg>
